{"extensionsUsed" : ["KHR_materials_specular", "KHR_materials_ior"], "accessors" : [{"bufferView" : 0, "byteOffset" : 0, "componentType" : 5123, "count" : 5154, "type" : "SCALAR", "max" : [5153], "min" : [0]}, {"bufferView" : 1, "byteOffset" : 0, "componentType" : 5126, "count" : 5154, "type" : "VEC3", "max" : [0.9847837090492249, 1.0052032470703125, 1.051110029220581], "min" : [-0.9194082617759705, -1.0211679935455322, -0.7669745087623596], "name" : "POSITION"}, {"bufferView" : 1, "byteOffset" : 12, "componentType" : 5126, "count" : 5154, "type" : "VEC3", "max" : [0.9941993951797485, 0.9994998574256897, 0.9982662200927734], "min" : [-0.9994805455207825, -0.9982856512069702, -0.9959755539894104], "name" : "NORMAL"}, {"bufferView" : 1, "byteOffset" : 24, "componentType" : 5126, "count" : 5154, "type" : "VEC2", "max" : [0.9958077669143677, 1.9969663619995117], "min" : [0.003032386302947998, 1.0033316612243652], "name" : "TEXCOORD_0"}, {"bufferView" : 0, "byteOffset" : 10308, "componentType" : 5123, "count" : 1062, "type" : "SCALAR", "max" : [1061], "min" : [0]}, {"bufferView" : 2, "byteOffset" : 0, "componentType" : 5126, "count" : 1062, "type" : "VEC3", "max" : [0.5884475111961365, 1.2422518730163574, 0.8563122749328613], "min" : [-0.7622630000114441, 0.950015664100647, -0.6243636608123779], "name" : "POSITION"}, {"bufferView" : 2, "byteOffset" : 12, "componentType" : 5126, "count" : 1062, "type" : "VEC3", "max" : [0.9916334748268127, 0.9957863688468933, 0.9932161569595337], "min" : [-0.9945833086967468, -0.9967343807220459, -0.990418016910553], "name" : "NORMAL"}, {"bufferView" : 2, "byteOffset" : 24, "componentType" : 5126, "count" : 1062, "type" : "VEC2", "max" : [0, 2], "min" : [0, 2], "name" : "TEXCOORD_0"}, {"bufferView" : 0, "byteOffset" : 12432, "componentType" : 5123, "count" : 1101, "type" : "SCALAR", "max" : [1045], "min" : [0]}, {"bufferView" : 3, "byteOffset" : 0, "componentType" : 5126, "count" : 1046, "type" : "VEC3", "max" : [0.9148028492927551, 0.37722358107566833, 0.949817955493927], "min" : [-0.6611485481262207, -0.5214457511901855, -0.1267668455839157], "name" : "POSITION"}, {"bufferView" : 3, "byteOffset" : 12, "componentType" : 5126, "count" : 1046, "type" : "VEC3", "max" : [0.9795166254043579, 1.0000044107437134, 0.874411940574646], "min" : [-0.3446993827819824, -0.999774158000946, -0.4867880940437317], "name" : "NORMAL"}, {"bufferView" : 3, "byteOffset" : 24, "componentType" : 5126, "count" : 1046, "type" : "VEC2", "max" : [0, 2], "min" : [0, 2], "name" : "TEXCOORD_0"}, {"bufferView" : 0, "byteOffset" : 14636, "componentType" : 5123, "count" : 1116, "type" : "SCALAR", "max" : [1003], "min" : [0]}, {"bufferView" : 4, "byteOffset" : 0, "componentType" : 5126, "count" : 1004, "type" : "VEC3", "max" : [0.4922080636024475, 0.8249791860580444, 0.9634848833084106], "min" : [-0.6643928289413452, 0.3747282922267914, -0.3882218599319458], "name" : "POSITION"}, {"bufferView" : 4, "byteOffset" : 12, "componentType" : 5126, "count" : 1004, "type" : "VEC3", "max" : [0.9998226165771484, 0.9971203207969666, 0.9987796545028687], "min" : [-0.9999505877494812, -0.9971203207969666, -0.994174063205719], "name" : "NORMAL"}, {"bufferView" : 4, "byteOffset" : 24, "componentType" : 5126, "count" : 1004, "type" : "VEC2", "max" : [1, 2], "min" : [0, 1], "name" : "TEXCOORD_0"}, {"bufferView" : 0, "byteOffset" : 16868, "componentType" : 5123, "count" : 4428, "type" : "SCALAR", "max" : [4427], "min" : [0]}, {"bufferView" : 5, "byteOffset" : 0, "componentType" : 5126, "count" : 4428, "type" : "VEC3", "max" : [0.5190564393997192, 0.8471460342407227, 0.9875524640083313], "min" : [-0.678684651851654, 0.4402178227901459, -0.4046095311641693], "name" : "POSITION"}, {"bufferView" : 5, "byteOffset" : 12, "componentType" : 5126, "count" : 4428, "type" : "VEC3", "max" : [0.9992761611938477, 0.9892837405204773, 0.993522584438324], "min" : [-0.9984990358352661, -0.9992432594299316, -0.9982244372367859], "name" : "NORMAL"}, {"bufferView" : 5, "byteOffset" : 24, "componentType" : 5126, "count" : 4428, "type" : "VEC2", "max" : [0.49000000953674316, 2], "min" : [0, 1.5099999904632568], "name" : "TEXCOORD_0"}], "asset" : {"generator" : "Aspose.3D 24.9.1", "version" : "2.0"}, "buffers" : [{"uri" : "data:application/octet-stream;base64,", "byteLength" : 431956}], "bufferViews" : [{"buffer" : 0, "byteOffset" : 0, "byteLength" : 25724, "target" : 34963}, {"buffer" : 0, "byteOffset" : 25728, "byteLength" : 164928, "byteStride" : 32, "target" : 34962}, {"buffer" : 0, "byteOffset" : 190660, "byteLength" : 33984, "byteStride" : 32, "target" : 34962}, {"buffer" : 0, "byteOffset" : 224648, "byteLength" : 33472, "byteStride" : 32, "target" : 34962}, {"buffer" : 0, "byteOffset" : 258124, "byteLength" : 32128, "byteStride" : 32, "target" : 34962}, {"buffer" : 0, "byteOffset" : 290256, "byteLength" : 141696, "byteStride" : 32, "target" : 34962}], "images" : [{"uri" : "data:image/png;base64,"}], "materials" : [{"name" : "ground 2", "extensions" : {"KHR_materials_specular" : {"specularFactor" : 0.5518672466278076}, "KHR_materials_ior" : {"ior" : 1.4500000476837158}}, "pbrMetallicRoughness" : {"baseColorFactor" : [1, 1, 1, 1], "baseColorTexture" : {"index" : 0, "texCoord" : 0}, "metallicFactor" : 0, "roughnessFactor" : 0.5535269975662231}, "emissiveFactor" : [0, 0, 0], "alphaMode" : "OPAQUE", "doubleSided" : true}, {"name" : "sky", "pbrMetallicRoughness" : {"baseColorFactor" : [0.800000011920929, 0.800000011920929, 0.800000011920929, 1], "metallicFactor" : 0, "roughnessFactor" : 0.5}, "emissiveFactor" : [0, 0, 0], "alphaMode" : "OPAQUE", "doubleSided" : true}, {"name" : "water 2", "extensions" : {"KHR_materials_specular" : {"specularColorFactor" : [1.2904564142227173, 1.2904564142227173, 1.2904564142227173]}, "KHR_materials_ior" : {"ior" : 1.4500000476837158}}, "pbrMetallicRoughness" : {"baseColorFactor" : [0.030537299811840057, 0.3442153334617615, 0.24078673124313354, 1], "metallicFactor" : 0, "roughnessFactor" : 0}, "emissiveFactor" : [0, 0, 0], "alphaMode" : "OPAQUE", "doubleSided" : true}, {"name" : "wood", "extensions" : {"KHR_materials_specular" : {"specularFactor" : 0.4273858666419983}, "KHR_materials_ior" : {"ior" : 1.4500000476837158}}, "pbrMetallicRoughness" : {"baseColorFactor" : [0.06787053495645523, 0.031530484557151794, 0.009915517643094063, 1], "metallicFactor" : 0, "roughnessFactor" : 0.8983402252197266}, "emissiveFactor" : [0, 0, 0], "alphaMode" : "OPAQUE", "doubleSided" : true}, {"name" : "tree", "extensions" : {"KHR_materials_specular" : {"specularFactor" : 0.6713286638259888}, "KHR_materials_ior" : {"ior" : 1.4500000476837158}}, "pbrMetallicRoughness" : {"baseColorFactor" : [0.00571034150198102, 0.2691905200481415, 0.01643229089677334, 1], "metallicFactor" : 0, "roughnessFactor" : 0.5804196000099182}, "emissiveFactor" : [0, 0, 0], "alphaMode" : "OPAQUE", "doubleSided" : true}], "meshes" : [{"primitives" : [{"attributes" : {"POSITION" : 1, "NORMAL" : 2, "TEXCOORD_0" : 3}, "indices" : 0, "material" : 0, "mode" : 4}, {"attributes" : {"POSITION" : 5, "NORMAL" : 6, "TEXCOORD_0" : 7}, "indices" : 4, "material" : 1, "mode" : 4}, {"attributes" : {"POSITION" : 9, "NORMAL" : 10, "TEXCOORD_0" : 11}, "indices" : 8, "material" : 2, "mode" : 4}, {"attributes" : {"POSITION" : 13, "NORMAL" : 14, "TEXCOORD_0" : 15}, "indices" : 12, "material" : 3, "mode" : 4}, {"attributes" : {"POSITION" : 17, "NORMAL" : 18, "TEXCOORD_0" : 19}, "indices" : 16, "material" : 4, "mode" : 4}]}], "nodes" : [{"matrix" : [10, 0, 0, 0, 0, 10, 0, 0, 0, 0, 10, 0, 0, 0, -0.021444320678710938, 1], "mesh" : 0, "name" : "ground.001"}], "samplers" : [{"magFilter" : 9729, "minFilter" : 9987, "wrapS" : 10497, "wrapT" : 10497}], "scene" : 0, "scenes" : [{"nodes" : [0]}], "textures" : [{"sampler" : 0, "source" : 0, "name" : ""}]}